<?xml version="1.0" encoding="UTF-8" standalone="no"?>
<svg width="1054px" height="356px" viewBox="0 0 1054 356" version="1.1" xmlns="http://www.w3.org/2000/svg" xmlns:xlink="http://www.w3.org/1999/xlink">
    <!-- Generator: Sketch 50.2 (55047) - http://www.bohemiancoding.com/sketch -->
    <title>docs-search-bg</title>
    <desc>Created with Sketch.</desc>
    <defs></defs>
    <g id="docs-search-bg" stroke="none" stroke-width="1" fill="none" fill-rule="evenodd">
        <path d="M951.730481,273.098878 C930.745895,287.383248 909.012057,325.02736 923.934035,344.21276 C933.487298,356.494613 953.281726,361.14254 964.875874,340.943196 C1004.56839,271.790834 1049.46991,311.09492 1053.00866,277.456757 C1055.77829,251.129705 1002.54876,238.506482 951.730481,273.098878 Z" id="Fill-15-Copy-8" fill="#9DE0FF" transform="translate(986.056150, 303.381945) rotate(180.000000) translate(-986.056150, -303.381945) "></path>
        <path d="M132.026497,154.234629 C120.304493,154.398709 71.9394832,151.666057 46.2352193,151.948276 C35.264809,152.068055 -0.301495722,148.402492 0.794121,174.655405 C1.62459847,194.576444 21.5703009,196.620778 30.8446965,196.366453 C43.9230733,196.005475 101.007018,199.860293 120.969155,198.47217 C135.009483,197.49753 166.642918,202.419952 163.886347,171.418542 C162.226487,152.747799 141.635055,154.100082 132.026497,154.234629 Z" id="Fill-5-Copy-3" fill="#0DE888"></path>
        <path d="M339.886791,10.2969653 C316.191261,-13.2627946 271.155304,11.7103768 292.659351,43.3328488 C315.26001,76.5671669 368.153281,38.398093 339.886791,10.2969653" id="Fill-7" fill="#FFD40D"></path>
        <path d="M936.099876,165.635373 C917.065761,146.71032 880.889337,166.770737 898.16308,192.172395 C916.317708,218.868814 958.805745,188.20841 936.099876,165.635373" id="Fill-7-Copy-3" fill="#0DE888" transform="translate(918.117044, 180.356327) rotate(-160.000000) translate(-918.117044, -180.356327) "></path>
    </g>
</svg>