<?xml version="1.0" encoding="UTF-8" standalone="no"?>
<svg width="238px" height="24px" viewBox="0 0 238 24" version="1.1" xmlns="http://www.w3.org/2000/svg" xmlns:xlink="http://www.w3.org/1999/xlink">
    <!-- Generator: Sketch 50.2 (55047) - http://www.bohemiancoding.com/sketch -->
    <title>docs-logo</title>
    <desc>Created with Sketch.</desc>
    <defs></defs>
    <g id="docs-logo" stroke="none" stroke-width="1" fill="none" fill-rule="evenodd">
        <g id="Group" transform="translate(0.000000, 2.000000)" fill="#FFFFFF">
            <path d="M17.8346912,4.38869242 C18.0141228,4.34601478 18.2361743,4.43878673 18.3296638,4.59653103 C18.3296638,4.59653103 18.7071999,5.21127489 18.9309509,5.70225165 C19.1542708,6.19228262 19.370293,6.87917146 19.370293,6.87917146 C19.4274349,7.05302908 19.3526015,7.28038827 19.2022018,7.38766731 L17.9826333,8.25757706 C17.8326572,8.36455404 17.7305426,8.59897711 17.7530937,8.78046114 C17.7530937,8.78046114 17.8202977,9.24484548 17.8302232,9.64434257 C17.8399889,10.0374123 17.7979773,10.4912998 17.7979773,10.4912998 C17.7841848,10.6738612 17.8985741,10.9016985 18.0544532,11.0008121 L19.3184542,11.8045099 C19.4738944,11.9033444 19.5614881,12.1270403 19.5129596,12.3038694 C19.5129596,12.3038694 19.3330085,13.0024831 19.1352599,13.5044972 C18.9378922,14.0055443 18.5938473,14.6380907 18.5938473,14.6380907 C18.5084787,14.7999667 18.2929826,14.9040798 18.111381,14.8704219 L16.6388003,14.5974953 C16.4577101,14.5639322 16.2178945,14.6532657 16.1024736,14.7956246 C16.1024736,14.7956246 15.7945198,15.1918134 15.4924669,15.4938662 C15.1570078,15.8293253 14.684943,16.1871247 14.684943,16.1871247 C14.540654,16.3003018 14.4482867,16.53877 14.478827,16.7209041 L14.7264735,18.1978023 C14.7569278,18.3794235 14.6492141,18.5941785 14.4853326,18.6764365 C14.4853326,18.6764365 13.8457506,19.0101706 13.3403618,19.1991277 C12.8359465,19.3877209 12.1356619,19.5553019 12.1356619,19.5553019 C11.9582418,19.6001769 11.7366398,19.5096387 11.6400927,19.3520881 L10.8572065,18.0745339 C10.7609313,17.9174271 10.533373,17.7997714 10.3514495,17.810238 C10.3514495,17.810238 9.94979026,17.8417682 9.58283321,17.8299041 C9.2050913,17.8176913 8.78385115,17.7558626 8.78385115,17.7558626 C8.60210485,17.7323764 8.3682143,17.8344894 8.26076628,17.9848844 L7.38948593,19.2044145 C7.28234043,19.3543859 7.05411448,19.4300849 6.88006747,19.3723683 C6.88006747,19.3723683 6.19182908,19.1561012 5.70085233,18.9323502 C5.21082137,18.7090302 4.59714778,18.3323519 4.59714778,18.3323519 C4.43996137,18.2386284 4.34727856,18.0179401 4.39040611,17.8383009 L4.70139454,16.5429408 C4.76578874,16.2747197 4.97631811,15.8984445 5.1707853,15.7033493 L8.39528277,12.4684367 C9.53410651,13.097201 10.9954151,12.9286294 11.9613226,11.9627219 C12.9272301,10.9968144 13.0958017,9.53550582 12.4670374,8.39668212 L15.6972841,5.16643543 C15.8924746,4.97124487 16.2684513,4.76122147 16.5371739,4.69730603 L17.8346912,4.38869242 Z" id="Shape" fill-rule="nonzero"></path>
            <path d="M1.85096263,15.2983587 C1.67153097,15.3410364 1.44947947,15.2482644 1.35599,15.0905201 C1.35599,15.0905201 0.978453887,14.4757762 0.75470289,13.9847995 C0.53138293,13.4947685 0.31536081,12.8078797 0.31536081,12.8078797 C0.258218858,12.6340221 0.333052332,12.4066629 0.483451987,12.2993838 L1.70302051,11.4294741 C1.85299662,11.3224971 1.95511118,11.088074 1.93256007,10.90659 C1.93256007,10.90659 1.8653561,10.4422057 1.85543061,10.0427086 C1.84566484,9.6496389 1.88767656,9.19575142 1.88767656,9.19575142 C1.90146896,9.01318998 1.78707973,8.78535263 1.63120053,8.68623902 L0.367199628,7.88254123 C0.211759427,7.78370671 0.124165633,7.56001083 0.172694152,7.38318177 C0.172694152,7.38318177 0.352645308,6.68456799 0.550393904,6.18255394 C0.747761566,5.68150685 1.09180652,5.04896046 1.09180652,5.04896046 C1.17717504,4.88708439 1.39267121,4.78297138 1.57427282,4.81662927 L3.04685346,5.08955595 C3.22794367,5.12311903 3.46775936,5.03378543 3.58318019,4.89142656 C3.58318019,4.89142656 3.89113406,4.49523778 4.1931869,4.19318493 C4.52864601,3.85772582 5.00071081,3.49992646 5.00071081,3.49992646 C5.14499985,3.38674944 5.23736714,3.14828116 5.20682687,2.96614708 L4.95918029,1.48924888 C4.92872601,1.30762769 5.03643965,1.09287265 5.20032118,1.01061461 C5.20032118,1.01061461 5.83990318,0.676880499 6.34529202,0.48792338 C6.84970731,0.299330255 7.54999187,0.131749254 7.54999187,0.131749254 C7.72741195,0.0868742337 7.94901396,0.177412471 8.04556107,0.334963043 L8.82844724,1.61251718 C8.92472252,1.76962412 9.15228081,1.88727979 9.33420426,1.87681311 C9.33420426,1.87681311 9.73586353,1.84528293 10.1028206,1.85714704 C10.4805625,1.86935985 10.9018026,1.93118852 10.9018026,1.93118852 C11.0835489,1.95467473 11.3174395,1.85256174 11.4248875,1.70216681 L12.2961679,0.482636663 C12.4033133,0.332665256 12.6315393,0.256966275 12.8055863,0.314682812 C12.8055863,0.314682812 13.4938247,0.530949938 13.9848014,0.75470093 C14.4748324,0.978020896 15.088506,1.35469925 15.088506,1.35469925 C15.2456924,1.44842273 15.3383752,1.66911104 15.2952477,1.84875026 L14.9842592,3.14411037 C14.919865,3.41233147 14.7093356,3.78860661 14.5148685,3.98370189 L11.290371,7.21861443 C10.1515473,6.58985011 8.6902387,6.7584217 7.72433118,7.72432922 C6.75842368,8.69023673 6.58985206,10.1515453 7.2186164,11.290369 L3.98836971,14.5206157 C3.79317913,14.7158063 3.41720247,14.9258296 3.1484799,14.9897451 L1.85096263,15.2983587 Z" id="Shape" fill-rule="nonzero"></path>
            <path d="M26.9428571,12.5846476 L29.8510594,12.5846476 C29.9637805,13.9372998 31.1586233,14.5009049 32.5338197,14.5009049 C33.8864719,14.5009049 34.6529748,13.9372998 34.6529748,13.08062 C34.6529748,12.3817497 34.1795466,11.9083215 33.007248,11.5927026 L30.4822971,10.9163765 C28.3856862,10.3527714 27.2359318,9.20301699 27.2359318,7.35439228 C27.2359318,4.69417623 29.6030732,3.65714286 32.0829356,3.65714286 C34.8333285,3.65714286 36.9073952,4.94216247 37.1102931,7.67001114 L34.224635,7.67001114 C34.1344582,6.36244731 33.0974248,5.84393063 31.902582,5.84393063 C30.7302834,5.84393063 30.0990457,6.33990311 30.0990457,7.15149445 C30.0990457,7.80527636 30.5048413,8.25616043 31.7222284,8.59432349 L34.2471792,9.27064961 C36.2536133,9.8117105 37.5160887,10.8712881 37.5160887,12.855178 C37.5160887,15.6732035 34.9911379,16.6876927 32.3760103,16.6876927 C29.2423659,16.6876927 27.145755,15.2223194 26.9428571,12.5846476 Z M40.6175271,16.4622506 L40.6175271,3.8825849 L49.6352086,3.8825849 L49.6352086,6.2948147 L43.4806409,6.2948147 L43.4806409,8.84230973 L48.46291,8.84230973 L48.46291,11.2545395 L43.4806409,11.2545395 L43.4806409,14.0500208 L49.6352086,14.0500208 L49.6352086,16.4622506 L40.6175271,16.4622506 Z M53.07481,16.4622506 L53.07481,3.8825849 L56.5917058,3.8825849 L59.4999081,9.58626846 L62.4306546,3.8825849 L65.7446525,3.8825849 L65.7446525,16.4622506 L63.0168039,16.4622506 L63.0168039,7.60237852 L60.1987784,13.1031643 L58.6206841,13.1031643 L55.8026586,7.60237852 L55.8026586,16.4622506 L53.07481,16.4622506 Z M68.530472,16.4622506 L73.1520338,3.8825849 L76.3082223,3.8825849 L80.9297841,16.4622506 L77.931405,16.4622506 L77.1423579,14.185286 L72.2051772,14.185286 L71.4386743,16.4622506 L68.530472,16.4622506 Z M72.9040475,12.0210425 L76.4434875,12.0210425 L74.6624954,6.72315458 L72.9040475,12.0210425 Z M83.7156036,16.4622506 L83.7156036,3.8825849 L88.1117233,3.8825849 C91.6511633,3.8825849 93.8154069,5.21269292 93.8154069,8.14343942 C93.8154069,11.0741859 91.6511633,12.4042939 88.1117233,12.4042939 L86.5787175,12.4042939 L86.5787175,16.4622506 L83.7156036,16.4622506 Z M86.5787175,10.0596967 L88.0891791,10.0596967 C90.073069,10.0596967 90.839572,9.51863585 90.839572,8.14343942 C90.839572,6.79078719 90.073069,6.22718209 88.0891791,6.22718209 L86.5787175,6.22718209 L86.5787175,10.0596967 Z M96.9844778,16.4622506 L96.9844778,3.8825849 L99.8475917,3.8825849 L99.8475917,8.79722133 L104.920038,8.79722133 L104.920038,3.8825849 L107.783151,3.8825849 L107.783151,16.4622506 L104.920038,16.4622506 L104.920038,11.2770837 L99.8475917,11.2770837 L99.8475917,16.4622506 L96.9844778,16.4622506 Z M117.444953,14.2078302 C119.969904,14.2078302 120.578597,12.1563077 120.578597,10.1724178 C120.578597,8.18852782 119.969904,6.13700528 117.444953,6.13700528 C114.920002,6.13700528 114.311309,8.18852782 114.311309,10.1724178 C114.311309,12.1563077 114.920002,14.2078302 117.444953,14.2078302 Z M117.444953,16.6876927 C113.364452,16.6876927 111.358018,14.072565 111.358018,10.1724178 C111.358018,6.2722705 113.364452,3.65714286 117.444953,3.65714286 C121.525454,3.65714286 123.531888,6.2722705 123.531888,10.1724178 C123.531888,14.072565 121.525454,16.6876927 117.444953,16.6876927 Z M127.106755,16.4622506 L127.106755,3.8825849 L131.502874,3.8825849 C135.042314,3.8825849 137.206558,5.21269292 137.206558,8.14343942 C137.206558,10.1273294 136.124436,11.2545395 134.59143,11.8181446 L137.792707,16.4622506 L134.501254,16.4622506 L131.886126,12.4042939 L129.969869,12.4042939 L129.969869,16.4622506 L127.106755,16.4622506 Z M129.969869,10.0596967 L131.48033,10.0596967 C133.46422,10.0596967 134.230723,9.51863585 134.230723,8.14343942 C134.230723,6.79078719 133.46422,6.22718209 131.48033,6.22718209 L129.969869,6.22718209 L129.969869,10.0596967 Z M140.871601,16.4622506 L140.871601,3.8825849 L149.889283,3.8825849 L149.889283,6.2948147 L143.734715,6.2948147 L143.734715,8.84230973 L148.716984,8.84230973 L148.716984,11.2545395 L143.734715,11.2545395 L143.734715,14.0500208 L149.889283,14.0500208 L149.889283,16.4622506 L140.871601,16.4622506 Z" id="SEMAPHORE"></path>
        </g>
        <path d="M160.276,12.186 L160.276,14.382 L158.206,14.382 L158.206,12.186 L160.276,12.186 Z M175.072,16.578 L175.072,18 L166.846,18 L166.846,16.722 L171.094,12.474 C172.354,11.214 173.11,10.206 173.11,9.018 C173.11,7.758 172.318,6.912 170.914,6.912 C169.888,6.912 169.024,7.434 167.944,8.352 L167.008,7.254 C168.178,6.228 169.348,5.526 171.094,5.526 C173.596,5.526 174.874,6.93 174.874,8.874 C174.874,10.404 174.226,11.43 172.264,13.302 L168.844,16.578 L175.072,16.578 Z M179.32,15.804 L179.32,18 L177.25,18 L177.25,15.804 L179.32,15.804 Z M191.146,11.844 C191.146,15.21 189.616,18.18 186.286,18.18 C182.956,18.18 181.408,15.21 181.408,11.862 C181.408,8.496 182.956,5.526 186.286,5.526 C189.616,5.526 191.146,8.496 191.146,11.844 Z M189.328,11.862 C189.328,8.514 188.158,6.876 186.286,6.876 C184.414,6.876 183.226,8.514 183.226,11.844 C183.226,15.192 184.414,16.83 186.286,16.83 C188.158,16.83 189.328,15.192 189.328,11.862 Z M207.202,5.706 L207.202,18 L205.402,18 L205.402,12.366 L199.678,12.366 L199.678,18 L197.896,18 L197.896,5.706 L199.678,5.706 L199.678,10.89 L205.402,10.89 L205.402,5.706 L207.202,5.706 Z M217.318,13.644 C217.318,13.788 217.318,13.968 217.282,14.094 L211.018,14.094 C211.144,15.84 212.134,16.902 213.808,16.902 C214.852,16.902 215.662,16.614 216.58,15.948 L217.228,16.956 C216.13,17.766 215.068,18.162 213.682,18.162 C211.09,18.162 209.326,16.416 209.326,13.644 C209.326,10.962 211,9.072 213.43,9.072 C215.86,9.072 217.318,10.854 217.318,13.644 Z M211.018,13.032 L215.68,13.032 C215.572,11.448 214.924,10.224 213.412,10.224 C212.008,10.224 211.162,11.322 211.018,13.032 Z M221.224,5.436 L221.224,18 L219.496,18 L219.496,5.436 L221.224,5.436 Z M231.916,13.626 C231.916,16.686 230.242,18.108 228.172,18.108 C227.11,18.108 226.318,17.712 225.598,17.064 L225.598,20.898 L223.87,20.898 L223.87,9.27 L225.4,9.27 L225.508,10.404 C226.372,9.612 227.146,9.126 228.352,9.126 C230.44,9.126 231.916,10.638 231.916,13.626 Z M230.152,13.644 C230.152,11.484 229.198,10.494 227.884,10.494 C226.984,10.494 226.3,10.89 225.598,11.52 L225.598,15.75 C226.282,16.416 226.966,16.758 227.848,16.758 C229.216,16.758 230.152,15.768 230.152,13.644 Z" id="·-2.0-Help" fill="#A0FFB5"></path>
    </g>
</svg>