<?xml version="1.0" encoding="UTF-8" standalone="no"?>
<svg width="1054px" height="240px" viewBox="0 0 1054 240" version="1.1" xmlns="http://www.w3.org/2000/svg" xmlns:xlink="http://www.w3.org/1999/xlink">
    <!-- Generator: Sketch 50.2 (55047) - http://www.bohemiancoding.com/sketch -->
    <title>docs-search-bg</title>
    <desc>Created with Sketch.</desc>
    <defs></defs>
    <g id="docs-search-bg" stroke="none" stroke-width="1" fill="none" fill-rule="evenodd">
        <path d="M951.730481,156.098878 C930.745895,170.383248 909.012057,208.02736 923.934035,227.21276 C933.487298,239.494613 953.281726,244.14254 964.875874,223.943196 C1004.56839,154.790834 1049.46991,194.09492 1053.00866,160.456757 C1055.77829,134.129705 1002.54876,121.506482 951.730481,156.098878 Z" id="Fill-15-Copy-8" fill="#9DE0FF" transform="translate(986.056150, 186.381945) rotate(180.000000) translate(-986.056150, -186.381945) "></path>
        <path d="M132.026497,77.2346285 C120.304493,77.3987092 71.9394832,74.6660571 46.2352193,74.9482759 C35.264809,75.0680548 -0.301495722,71.4024918 0.794121,97.6554053 C1.62459847,117.576444 21.5703009,119.620778 30.8446965,119.366453 C43.9230733,119.005475 101.007018,122.860293 120.969155,121.47217 C135.009483,120.49753 166.642918,125.419952 163.886347,94.4185424 C162.226487,75.7477985 141.635055,77.1000823 132.026497,77.2346285 Z" id="Fill-5-Copy-3" fill="#0DE888"></path>
        <path d="M326.881843,7.59593294 C309.013082,-10.1704434 275.051541,8.66178426 291.267707,32.5082385 C308.310827,57.5701833 348.197556,28.7869473 326.881843,7.59593294" id="Fill-7" fill="#FFD40D"></path>
        <path d="M936.099876,88.6353734 C917.065761,69.7103204 880.889337,89.7707368 898.16308,115.172395 C916.317708,141.868814 958.805745,111.20841 936.099876,88.6353734" id="Fill-7-Copy-3" fill="#0DE888" transform="translate(918.117044, 103.356327) rotate(-160.000000) translate(-918.117044, -103.356327) "></path>
    </g>
</svg>