<?xml version="1.0" encoding="UTF-8" standalone="no"?>
<svg width="260px" height="23px" viewBox="0 0 260 23" version="1.1" xmlns="http://www.w3.org/2000/svg" xmlns:xlink="http://www.w3.org/1999/xlink">
    <!-- Generator: Sketch 50.2 (55047) - http://www.bohemiancoding.com/sketch -->
    <title>docs-logo</title>
    <desc>Created with Sketch.</desc>
    <defs></defs>
    <g id="docs-logo" stroke="none" stroke-width="1" fill="none" fill-rule="evenodd">
        <path d="M19.9748541,4.91533551 C20.1758176,4.86753655 20.4245153,4.97144114 20.5292234,5.14811476 C20.5292234,5.14811476 20.9520639,5.83662788 21.202665,6.38652185 C21.4527833,6.93535654 21.6947281,7.70467204 21.6947281,7.70467204 C21.7587271,7.89939257 21.6749137,8.15403487 21.506466,8.27418739 L20.1405493,9.24848631 C19.972576,9.36830053 19.8582077,9.63085437 19.883465,9.83411648 C19.883465,9.83411648 19.9587334,10.3542269 19.9698499,10.8016637 C19.9807876,11.2419017 19.9337345,11.7502557 19.9337345,11.7502557 C19.918287,11.9547245 20.046403,12.2099023 20.2209876,12.3209096 L21.6366687,13.2210511 C21.8107617,13.3317458 21.9088667,13.5822852 21.8545148,13.7803337 C21.8545148,13.7803337 21.6529696,14.5627811 21.4314911,15.1250369 C21.2104393,15.6862096 20.8251089,16.3946616 20.8251089,16.3946616 C20.7294962,16.5759628 20.4881405,16.6925694 20.2847467,16.6548725 L18.6354564,16.3491947 C18.4326353,16.311604 18.1640418,16.4116576 18.0347705,16.5710996 C18.0347705,16.5710996 17.6898621,17.014831 17.3515629,17.3531302 C16.9758487,17.7288444 16.4471361,18.1295796 16.4471361,18.1295796 C16.2855324,18.256338 16.1820811,18.5234224 16.2162862,18.7274126 L16.4936503,20.3815386 C16.5277591,20.5849543 16.4071198,20.8254799 16.2235725,20.9176089 C16.2235725,20.9176089 15.5072407,21.2913911 14.9412052,21.5030231 C14.3762601,21.7142474 13.5919413,21.9019381 13.5919413,21.9019381 C13.3932308,21.9521981 13.1450366,21.8507953 13.0369038,21.6743387 L12.1600713,20.243478 C12.052243,20.0675183 11.7973778,19.9357439 11.5936234,19.9474666 C11.5936234,19.9474666 11.1437651,19.9827804 10.7327732,19.9694926 C10.3097023,19.9558142 9.83791329,19.8865661 9.83791329,19.8865661 C9.63435743,19.8602616 9.37240002,19.9746282 9.25205823,20.1430705 L8.27622424,21.5089443 C8.15622128,21.6769122 7.90060821,21.7616951 7.70567557,21.6970525 C7.70567557,21.6970525 6.93484856,21.4548334 6.3849546,21.2042322 C5.83611994,20.9541139 5.14880551,20.5322342 5.14880551,20.5322342 C4.97275674,20.4272638 4.86895199,20.180093 4.91725484,19.978897 L5.26556189,18.5280937 C5.33768339,18.227686 5.57347629,17.8062579 5.79127953,17.5877512 L9.4027167,13.9646491 C10.6781993,14.6688652 12.3148649,14.480065 13.3966813,13.3982485 C14.4784977,12.3164321 14.6672979,10.6797665 13.9630819,9.40428397 L17.5809582,5.78640768 C17.7995716,5.56779425 18.2206655,5.33256805 18.5216347,5.26098276 L19.9748541,4.91533551 Z" id="Shape" fill="#FFFFFF" fill-rule="nonzero"></path>
        <path d="M2.07307815,17.1341617 C1.87211468,17.1819608 1.62341701,17.0780562 1.5187088,16.9013826 C1.5187088,16.9013826 1.09586835,16.2128694 0.845267237,15.6629754 C0.595148881,15.1141408 0.353204107,14.3448252 0.353204107,14.3448252 C0.289205121,14.1501048 0.373018611,13.8954624 0.541466225,13.7753099 L1.90738297,12.8010109 C2.07535621,12.6811968 2.18972452,12.4186429 2.16446728,12.2153808 C2.16446728,12.2153808 2.08919883,11.6952703 2.07808228,11.2478336 C2.06714462,10.8075956 2.11419775,10.2992416 2.11419775,10.2992416 C2.12964524,10.0947728 2.00152929,9.83959495 1.8269446,9.7285877 L0.411263583,8.82844618 C0.237170558,8.71775151 0.139065509,8.46721213 0.193417451,8.26916359 C0.193417451,8.26916359 0.394962745,7.48671615 0.616441172,6.92446041 C0.837492954,6.36328767 1.2228233,5.65483572 1.2228233,5.65483572 C1.31843604,5.47353452 1.55979176,5.35692794 1.76318556,5.39462479 L3.41247588,5.70030267 C3.61529691,5.73789332 3.88389048,5.63783969 4.01316182,5.47839775 C4.01316182,5.47839775 4.35807014,5.03466631 4.69636933,4.69636713 C5.07208353,4.32065292 5.60079611,3.91991764 5.60079611,3.91991764 C5.76239983,3.79315937 5.8658512,3.52607489 5.83164609,3.32208473 L5.55428192,1.66795874 C5.52017314,1.46454302 5.6408124,1.22401737 5.82435972,1.13188836 C5.82435972,1.13188836 6.54069157,0.758106159 7.10672706,0.546474186 C7.67167219,0.335249885 8.45599089,0.147559165 8.45599089,0.147559165 C8.65470139,0.0972991417 8.90289563,0.198701968 9.0110284,0.375158609 L9.88786091,1.80601925 C9.99568922,1.98197902 10.2505545,2.11375337 10.4543088,2.10203068 C10.4543088,2.10203068 10.9041672,2.06671688 11.315159,2.08000469 C11.73823,2.09368303 12.2100189,2.16293114 12.2100189,2.16293114 C12.4135748,2.1892357 12.6755322,2.07486915 12.795874,1.90642683 L13.771708,0.540553062 C13.8917109,0.372585087 14.147324,0.287802228 14.3422566,0.35244475 C14.3422566,0.35244475 15.1130837,0.59466393 15.6629776,0.845265042 C16.2118123,1.0953834 16.8991267,1.51726316 16.8991267,1.51726316 C17.0751755,1.62223346 17.1789802,1.86940436 17.1306774,2.07060029 L16.7823703,3.52140362 C16.7102488,3.82181125 16.4744559,4.2432394 16.2566527,4.46174612 L12.6452155,8.08484816 C11.3697329,7.38063212 9.73306735,7.5694323 8.65125092,8.65124873 C7.56943452,9.73306513 7.38063431,11.3697307 8.08485037,12.6452133 L4.46697408,16.2630896 C4.24836063,16.4817031 3.82726677,16.7169292 3.52629748,16.7885145 L2.07307815,17.1341617 Z" id="Shape" fill="#FFFFFF" fill-rule="nonzero"></path>
        <path d="M30.176,14.0948053 L33.4331866,14.0948053 C33.5594341,15.6097758 34.897658,16.2410135 36.437878,16.2410135 C37.9528485,16.2410135 38.8113318,15.6097758 38.8113318,14.6502945 C38.8113318,13.8675597 38.2810922,13.33732 36.9681177,12.9838269 L34.1401728,12.2263417 C31.7919685,11.595104 30.5042436,10.307379 30.5042436,8.23691936 C30.5042436,5.25747738 33.155442,4.096 35.9328879,4.096 C39.0133279,4.096 41.3362827,5.53522197 41.5635282,8.59041247 L38.3315912,8.59041247 C38.2305931,7.12594099 37.0691158,6.5452023 35.7308918,6.5452023 C34.4179174,6.5452023 33.7109312,7.10069148 33.7109312,8.00967378 C33.7109312,8.74190952 34.1654223,9.24689969 35.5288958,9.62564231 L38.3568407,10.3831276 C40.6040469,10.9891158 42.0180194,12.1758426 42.0180194,14.3977994 C42.0180194,17.5539879 39.1900745,18.6902158 36.2611315,18.6902158 C32.7514498,18.6902158 30.4032456,17.0489977 30.176,14.0948053 Z M45.4916303,18.4377207 L45.4916303,4.34849508 L55.5914336,4.34849508 L55.5914336,7.05019247 L48.6983179,7.05019247 L48.6983179,9.9033869 L54.2784592,9.9033869 L54.2784592,12.6050843 L48.6983179,12.6050843 L48.6983179,15.7360233 L55.5914336,15.7360233 L55.5914336,18.4377207 L45.4916303,18.4377207 Z M59.4437872,18.4377207 L59.4437872,4.34849508 L63.3827105,4.34849508 L66.639897,10.7366207 L69.9223331,4.34849508 L73.6340108,4.34849508 L73.6340108,18.4377207 L70.5788203,18.4377207 L70.5788203,8.51466395 L67.4226318,14.675544 L65.6551662,14.675544 L62.4989777,8.51466395 L62.4989777,18.4377207 L59.4437872,18.4377207 Z M76.7541286,18.4377207 L81.9302778,4.34849508 L85.465209,4.34849508 L90.6413582,18.4377207 L87.2831736,18.4377207 L86.3994408,15.8875204 L80.8697985,15.8875204 L80.0113152,18.4377207 L76.7541286,18.4377207 Z M81.6525332,13.4635676 L85.616706,13.4635676 L83.6219949,7.52993312 L81.6525332,13.4635676 Z M93.761476,18.4377207 L93.761476,4.34849508 L98.6851301,4.34849508 C102.649303,4.34849508 105.073256,5.83821607 105.073256,9.12065214 C105.073256,12.4030882 102.649303,13.8928092 98.6851301,13.8928092 L96.9681636,13.8928092 L96.9681636,18.4377207 L93.761476,18.4377207 Z M96.9681636,11.2668603 L98.6598806,11.2668603 C100.881837,11.2668603 101.740321,10.6608721 101.740321,9.12065214 C101.740321,7.60568165 100.881837,6.97444394 98.6598806,6.97444394 L96.9681636,6.97444394 L96.9681636,11.2668603 Z M108.622615,18.4377207 L108.622615,4.34849508 L111.829303,4.34849508 L111.829303,9.85288788 L117.510442,9.85288788 L117.510442,4.34849508 L120.71713,4.34849508 L120.71713,18.4377207 L117.510442,18.4377207 L117.510442,12.6303338 L111.829303,12.6303338 L111.829303,18.4377207 L108.622615,18.4377207 Z M131.538347,15.9127699 C134.366292,15.9127699 135.048029,13.6150646 135.048029,11.3931079 C135.048029,9.17115116 134.366292,6.87344591 131.538347,6.87344591 C128.710403,6.87344591 128.028666,9.17115116 128.028666,11.3931079 C128.028666,13.6150646 128.710403,15.9127699 131.538347,15.9127699 Z M131.538347,18.6902158 C126.968186,18.6902158 124.72098,15.7612728 124.72098,11.3931079 C124.72098,7.02494296 126.968186,4.096 131.538347,4.096 C136.108508,4.096 138.355715,7.02494296 138.355715,11.3931079 C138.355715,15.7612728 136.108508,18.6902158 131.538347,18.6902158 Z M142.359565,18.4377207 L142.359565,4.34849508 L147.283219,4.34849508 C151.247392,4.34849508 153.671345,5.83821607 153.671345,9.12065214 C153.671345,11.3426089 152.459369,12.6050843 150.742402,13.236322 L154.327832,18.4377207 L150.641404,18.4377207 L147.712461,13.8928092 L145.566253,13.8928092 L145.566253,18.4377207 L142.359565,18.4377207 Z M145.566253,11.2668603 L147.25797,11.2668603 C149.479927,11.2668603 150.33841,10.6608721 150.33841,9.12065214 C150.33841,7.60568165 149.479927,6.97444394 147.25797,6.97444394 L145.566253,6.97444394 L145.566253,11.2668603 Z M157.776194,18.4377207 L157.776194,4.34849508 L167.875997,4.34849508 L167.875997,7.05019247 L160.982881,7.05019247 L160.982881,9.9033869 L166.563023,9.9033869 L166.563023,12.6050843 L160.982881,12.6050843 L160.982881,15.7360233 L167.875997,15.7360233 L167.875997,18.4377207 L157.776194,18.4377207 Z" id="SEMAPHORE" fill="#FFFFFF"></path>
        <path d="M178.64,11.54 L178.64,13.98 L176.34,13.98 L176.34,11.54 L178.64,11.54 Z M195.08,16.42 L195.08,18 L185.94,18 L185.94,16.58 L190.66,11.86 C192.06,10.46 192.9,9.34 192.9,8.02 C192.9,6.62 192.02,5.68 190.46,5.68 C189.32,5.68 188.36,6.26 187.16,7.28 L186.12,6.06 C187.42,4.92 188.72,4.14 190.66,4.14 C193.44,4.14 194.86,5.7 194.86,7.86 C194.86,9.56 194.14,10.7 191.96,12.78 L188.16,16.42 L195.08,16.42 Z M199.8,15.56 L199.8,18 L197.5,18 L197.5,15.56 L199.8,15.56 Z M212.94,11.16 C212.94,14.9 211.24,18.2 207.54,18.2 C203.84,18.2 202.12,14.9 202.12,11.18 C202.12,7.44 203.84,4.14 207.54,4.14 C211.24,4.14 212.94,7.44 212.94,11.16 Z M210.92,11.18 C210.92,7.46 209.62,5.64 207.54,5.64 C205.46,5.64 204.14,7.46 204.14,11.16 C204.14,14.88 205.46,16.7 207.54,16.7 C209.62,16.7 210.92,14.88 210.92,11.18 Z M230.78,4.34 L230.78,18 L228.78,18 L228.78,11.74 L222.42,11.74 L222.42,18 L220.44,18 L220.44,4.34 L222.42,4.34 L222.42,10.1 L228.78,10.1 L228.78,4.34 L230.78,4.34 Z M242.02,13.16 C242.02,13.32 242.02,13.52 241.98,13.66 L235.02,13.66 C235.16,15.6 236.26,16.78 238.12,16.78 C239.28,16.78 240.18,16.46 241.2,15.72 L241.92,16.84 C240.7,17.74 239.52,18.18 237.98,18.18 C235.1,18.18 233.14,16.24 233.14,13.16 C233.14,10.18 235,8.08 237.7,8.08 C240.4,8.08 242.02,10.06 242.02,13.16 Z M235.02,12.48 L240.2,12.48 C240.08,10.72 239.36,9.36 237.68,9.36 C236.12,9.36 235.18,10.58 235.02,12.48 Z M246.36,4.04 L246.36,18 L244.44,18 L244.44,4.04 L246.36,4.04 Z M258.24,13.14 C258.24,16.54 256.38,18.12 254.08,18.12 C252.9,18.12 252.02,17.68 251.22,16.96 L251.22,21.22 L249.3,21.22 L249.3,8.3 L251,8.3 L251.12,9.56 C252.08,8.68 252.94,8.14 254.28,8.14 C256.6,8.14 258.24,9.82 258.24,13.14 Z M256.28,13.16 C256.28,10.76 255.22,9.66 253.76,9.66 C252.76,9.66 252,10.1 251.22,10.8 L251.22,15.5 C251.98,16.24 252.74,16.62 253.72,16.62 C255.24,16.62 256.28,15.52 256.28,13.16 Z" id="·-2.0-Help" fill="#CDF6E1"></path>
    </g>
</svg>