<?xml version="1.0" encoding="UTF-8" standalone="no"?>
<svg width="220px" height="150px" viewBox="0 0 220 150" version="1.1" xmlns="http://www.w3.org/2000/svg" xmlns:xlink="http://www.w3.org/1999/xlink">
    <!-- Generator: Sketch 50.2 (55047) - http://www.bohemiancoding.com/sketch -->
    <title>docs-guided-tour</title>
    <desc>Created with Sketch.</desc>
    <defs></defs>
    <g id="docs-guided-tour" stroke="none" stroke-width="1" fill="none" fill-rule="evenodd">
        <path d="M69.7304815,38.0988779 C48.7458954,52.3832479 27.0120572,90.02736 41.9340348,109.21276 C51.487298,121.494613 71.2817262,126.14254 82.8758743,105.943196 C122.568386,36.7908336 167.469905,76.0949201 171.008664,42.4567569 C173.778288,16.1297047 120.548762,3.50648156 69.7304815,38.0988779 Z" id="Fill-15" fill="#E4E6EF" transform="translate(104.056150, 68.381945) rotate(180.000000) translate(-104.056150, -68.381945) "></path>
        <path d="M105.166788,47 L101.027435,77.5978157 C100.805315,79.2397136 101.956272,80.7507988 103.59817,80.9729191 C103.731472,80.9909526 103.865837,81 104.000354,81 L129.687122,81 C131.343976,81 132.687122,79.6568542 132.687122,78 C132.687122,77.6081466 132.610354,77.2200888 132.461156,76.8577506 L127.964438,65.9371504 C127.464857,64.723881 127.59207,63.3427454 128.30487,62.2411461 L135.171065,51.6297538 C136.071153,50.2387085 135.673154,48.3813777 134.282108,47.4812895 C133.796598,47.1671361 133.230638,47 132.652354,47 L105.166788,47 Z" id="Path-113" stroke="#2F313B" stroke-width="2" fill="#FFFFFF"></path>
        <rect id="Rectangle-8" stroke="#2F313B" stroke-width="2" fill="#FFFFFF" x="80" y="36" width="4" height="96" rx="2"></rect>
        <path d="M84,40 L112.560392,40 C113.664962,40 114.560392,40.8954305 114.560392,42 C114.560392,42.131704 114.547383,42.2630859 114.521554,42.3922323 L108,75 L84,75 L84,40 Z" id="Path-109" stroke="#2F313B" stroke-width="2" fill="#FFFFFF"></path>
        <path d="M103.804199,123.000913 L100.329228,122.994771 C98.8272729,122.992117 97.3734225,123.524217 96.2280273,124.495786 L96.2280273,124.495786 C95.0824403,125.467517 93.6290321,126.000913 92.1268231,126.000913 L84,126.000913 L84,105 L103.804199,105 L103.804199,123.000913 Z" id="Path-116" stroke="#2F313B" stroke-width="2" fill="#FFFFFF"></path>
        <rect id="Rectangle-10" stroke="#2F313B" stroke-width="2" fill="#FFFFFF" x="75" y="121" width="12" height="5" rx="2.5"></rect>
        <rect id="Rectangle-10-Copy" stroke="#2F313B" stroke-width="2" fill="#FFFFFF" x="75" y="116" width="12" height="5" rx="2.5"></rect>
        <rect id="Rectangle-10-Copy-2" stroke="#2F313B" stroke-width="2" fill="#FFFFFF" x="74" y="111" width="13" height="5" rx="2.5"></rect>
        <rect id="Rectangle-10-Copy-3" stroke="#2F313B" stroke-width="2" fill="#FFFFFF" x="75" y="106" width="13" height="5" rx="2.5"></rect>
        <path d="M91.2059436,115.494873 L88.1543357,113.118568 C86.7097583,111.993667 85.6023213,110.493195 84.9531359,108.781247 L84.4500867,107.454671 C84.1554404,106.677668 83.4110219,106.163813 82.5800286,106.163813 L81.3743378,106.163813 C80.8403403,106.163813 80.3285178,106.37736 79.9528711,106.75689 L78.7896462,107.932139 C78.2409187,108.486539 77.4199353,108.671325 76.6865909,108.405492 L76.1735949,108.219534 C75.2495937,107.884589 74.7720691,106.864012 75.107014,105.94001 C75.1121307,105.925895 75.1174258,105.911845 75.1228981,105.897864 L76.5424394,102.271045 C76.8424901,101.504439 77.5816289,101 78.4048638,101 L85.839341,101 C86.5719329,101 87.2904559,101.20119 87.9165249,101.581622 L89.8807226,102.775171 C91.6390335,103.843612 93.5865887,104.563572 95.6170764,104.895752 L97.0874583,105.1363 C98.1549237,105.310933 99.2347968,105.398682 100.316452,105.398682 L112.272822,105.398682" id="Path-115" stroke="#2F313B" stroke-width="2" fill="#FFFFFF" stroke-linecap="round"></path>
        <polyline id="Rectangle-9" stroke="#2F313B" stroke-width="2" fill="#FFFFFF" stroke-linecap="round" points="137 126 104 126 104 105 127 105"></polyline>
        <path d="M111,106 L111,125" id="Line-3" stroke="#2F313B" stroke-width="2" stroke-linecap="square"></path>
    </g>
</svg>