<svg xmlns="http://www.w3.org/2000/svg" width="21.064" height="21.009" viewBox="0 0 21.064 21.009"><path d="M10.843.641A10.636,10.636,0,0,0,.343,11.4a10.844,10.844,0,0,0,7.15,10.236.553.553,0,0,0,.709-.528V19.263c-2.9.66-3.543-1.453-3.543-1.453A2.71,2.71,0,0,0,3.5,16.226c-.966-.66.064-.66.064-.66a2.251,2.251,0,0,1,1.61,1.123,2.2,2.2,0,0,0,3.028.925,2.323,2.323,0,0,1,.644-1.453C6.527,15.9,4.079,14.971,4.079,10.81A4.151,4.151,0,0,1,5.175,7.9,4,4,0,0,1,5.3,5.131s.9-.264,2.9,1.123a8.793,8.793,0,0,1,2.641-.33,11.581,11.581,0,0,1,2.641.33c2-1.387,2.9-1.123,2.9-1.123a4.232,4.232,0,0,1,.129,2.84,4.331,4.331,0,0,1,1.1,2.906c0,4.16-2.448,5.019-4.767,5.283a2.556,2.556,0,0,1,.709,1.981v2.972a.553.553,0,0,0,.709.528A10.757,10.757,0,0,0,21.408,11.4,10.732,10.732,0,0,0,10.843.641Z" transform="translate(-0.343 -0.641)" fill="#fff" fill-rule="evenodd"/></svg>