<svg xmlns="http://www.w3.org/2000/svg" xmlns:xlink="http://www.w3.org/1999/xlink" width="503.356" height="695.274" viewBox="0 0 503.356 695.274"><defs><linearGradient id="a" x1="1.106" y1="1.695" x2="0.383" y2="-0.239" gradientUnits="objectBoundingBox"><stop offset="0" stop-color="#dfdfdf"/><stop offset="1" stop-color="#ececec"/></linearGradient><linearGradient id="b" x1="-0.356" y1="1.078" x2="1.096" y2="0.5" xlink:href="#a"/><clipPath id="c"><rect width="151" height="255" transform="translate(0 26)" fill="#fff"/></clipPath><linearGradient id="d" x1="0.776" y1="-1.206" x2="-0.035" y2="0.5" xlink:href="#a"/><clipPath id="e"><rect width="108" height="155" transform="translate(0 527)" fill="#fff"/></clipPath></defs><g transform="translate(0.389 13.274)"><path d="M-2555.3-10034.729a66.323,66.323,0,0,1-19.406-47.648l.433-60.133h.149l.426-58.776a31.019,31.019,0,0,0-31.269-31.3l-47.631.4a12.25,12.25,0,0,1-12.35-12.36l.2-23.614,60.084-.58a66.089,66.089,0,0,1,47.536,19.5,66.325,66.325,0,0,1,19.406,47.646l-.436,60.136h-.146l-.426,58.775a31.018,31.018,0,0,0,31.269,31.3l47.631-.4a12.249,12.249,0,0,1,12.35,12.357l-.2,23.617-60.084.579-.583,0A66.081,66.081,0,0,1-2555.3-10034.729Z" transform="translate(10518.197 -2460.75) rotate(-90)" fill="url(#a)"/><path d="M403.476,276.855,184,276.547V240.026l219.168.219a31.421,31.421,0,0,0,31.69-31.69l-.432-75.485-.148,0-.44-184.763A67.727,67.727,0,0,1,437.382-74h42.244A31.324,31.324,0,0,0,470.3-51.386L470.736,132h.143l.44,76.86a67.288,67.288,0,0,1-67.261,67.995Z" transform="translate(-184.389 74)" fill="url(#b)"/><g transform="translate(59.51 469.426)"><path d="M3.822,92.286A2.827,2.827,0,0,1,1.8,91.435L0,89.609l1.076-1.095,1.8,1.826a1.323,1.323,0,0,0,1.887,0l1.425-1.449a.522.522,0,0,1,.745,0l.706.718-1.8,1.831A2.822,2.822,0,0,1,3.822,92.286Z" transform="translate(10.73 -80.265)" fill="#212121"/><path d="M3.822,3.772A2.827,2.827,0,0,1,1.8,2.921L0,1.095,1.076,0l1.8,1.826a1.323,1.323,0,0,0,1.887,0L6.189.377a.522.522,0,0,1,.745,0l.706.718-1.8,1.831A2.822,2.822,0,0,1,3.822,3.772Z" transform="translate(7.64 3.772) rotate(180)" fill="#212121"/><path d="M3.822,92.286A2.827,2.827,0,0,1,1.8,91.435L0,89.609l1.076-1.095,1.8,1.826a1.323,1.323,0,0,0,1.887,0l1.425-1.449a.522.522,0,0,1,.745,0l.706.718-1.8,1.831A2.822,2.822,0,0,1,3.822,92.286Z" transform="translate(34.034 -80.265)" fill="#212121"/><path d="M3.822,3.772A2.827,2.827,0,0,1,1.8,2.921L0,1.095,1.076,0l1.8,1.826a1.323,1.323,0,0,0,1.887,0L6.189.377a.522.522,0,0,1,.745,0l.706.718-1.8,1.831A2.822,2.822,0,0,1,3.822,3.772Z" transform="translate(30.944 3.772) rotate(180)" fill="#212121"/><path d="M3.822,92.286A2.827,2.827,0,0,1,1.8,91.435L0,89.609l1.076-1.095,1.8,1.826a1.323,1.323,0,0,0,1.887,0l1.425-1.449a.522.522,0,0,1,.745,0l.706.718-1.8,1.831A2.822,2.822,0,0,1,3.822,92.286Z" transform="translate(10.73 -61.194)" fill="#212121"/><path d="M3.822,3.772A2.827,2.827,0,0,1,1.8,2.921L0,1.095,1.076,0l1.8,1.826a1.323,1.323,0,0,0,1.887,0L6.189.377a.522.522,0,0,1,.745,0l.706.718-1.8,1.831A2.822,2.822,0,0,1,3.822,3.772Z" transform="translate(7.64 22.843) rotate(180)" fill="#212121"/><path d="M3.822,92.286A2.827,2.827,0,0,1,1.8,91.435L0,89.609l1.076-1.095,1.8,1.826a1.323,1.323,0,0,0,1.887,0l1.425-1.449a.522.522,0,0,1,.745,0l.706.718-1.8,1.831A2.822,2.822,0,0,1,3.822,92.286Z" transform="translate(34.034 -61.194)" fill="#212121"/><path d="M3.822,3.772A2.827,2.827,0,0,1,1.8,2.921L0,1.095,1.076,0l1.8,1.826a1.323,1.323,0,0,0,1.887,0L6.189.377a.522.522,0,0,1,.745,0l.706.718-1.8,1.831A2.822,2.822,0,0,1,3.822,3.772Z" transform="translate(30.944 22.843) rotate(180)" fill="#212121"/><path d="M3.822,3.772A2.827,2.827,0,0,1,1.8,2.921L0,1.095,1.076,0l1.8,1.826a1.323,1.323,0,0,0,1.887,0L6.189.377a.522.522,0,0,1,.745,0l.706.718-1.8,1.831A2.822,2.822,0,0,1,3.822,3.772Z" transform="translate(7.64 42.416) rotate(180)" fill="#212121"/><path d="M3.822,3.772A2.827,2.827,0,0,1,1.8,2.921L0,1.095,1.076,0l1.8,1.826a1.323,1.323,0,0,0,1.887,0L6.189.377a.522.522,0,0,1,.745,0l.706.718-1.8,1.831A2.822,2.822,0,0,1,3.822,3.772Z" transform="translate(30.945 42.416) rotate(180)" fill="#212121"/></g><g clip-path="url(#c)"><path d="M178.155,175.075a13.036,13.036,0,0,1-1.525-6.251l.429-96.925a33.147,33.147,0,0,0-33.431-33.431l-36.475.443v.022l-.849-.011-.925.011V38.91l-33.325-.441A33.148,33.148,0,0,0,38.624,71.9l.429,96.925a13.035,13.035,0,0,1-1.525,6.251H.585L0,71.573A70.985,70.985,0,0,1,71.73,0l34.561.457L143.952,0a70.983,70.983,0,0,1,71.727,71.57l-.582,103.5Z" transform="translate(134.977 52.19) rotate(90)" fill="url(#d)"/></g><g clip-path="url(#e)"><path d="M29.887,0,79.659,50.619a36.371,36.371,0,0,0,52.182,0L171.248,10.54a14.447,14.447,0,0,1,20.608,0L211.379,30.4,161.607,81.015a78.2,78.2,0,0,1-111.835,0L0,30.4Z" transform="translate(-105.252 550.726)" fill="#f16332"/></g></g></svg>