<svg xmlns="http://www.w3.org/2000/svg" xmlns:xlink="http://www.w3.org/1999/xlink" width="372.888" height="752.737" viewBox="0 0 372.888 752.737"><defs><linearGradient id="a" x1="1.045" y1="-0.109" x2="0.148" y2="0.852" gradientUnits="objectBoundingBox"><stop offset="0" stop-color="#029d75"/><stop offset="1" stop-color="#fff"/></linearGradient><linearGradient id="b" x1="0.5" y1="1" x2="0.5" y2="-0.059" gradientUnits="objectBoundingBox"><stop offset="0" stop-color="#dfdfdf"/><stop offset="1" stop-color="#ececec"/></linearGradient><linearGradient id="c" x1="0.14" y1="1.099" x2="1.035" y2="-0.271" xlink:href="#b"/></defs><g transform="translate(-1067.456 -15.617)"><path d="M78,376.674,0,297.117,198.846,94.291a313.224,313.224,0,0,1,127.26-79.1V208.194q-4.277,3.751-8.339,7.89L160.329,376.674a57.6,57.6,0,0,1-82.331,0Z" transform="translate(1113.771 0.43)" fill="url(#a)"/><path d="M.589,349.924,0,89.4A70.985,70.985,0,0,1,71.73,17.825l64.238.464,0,.156,21.011.094V57l-22.138-.1v-.158l-62.788-.455A33.148,33.148,0,0,0,38.624,89.722l.426,260.2Z" transform="translate(1283.363 418.429)" fill="url(#b)"/><g transform="translate(1183.377 147.744)"><path d="M3.822,92.286A2.827,2.827,0,0,1,1.8,91.435L0,89.609l1.076-1.095,1.8,1.826a1.323,1.323,0,0,0,1.887,0l1.425-1.449a.522.522,0,0,1,.745,0l.706.718-1.8,1.831A2.822,2.822,0,0,1,3.822,92.286Z" transform="translate(10.73 -80.265)" fill="#212121"/><path d="M3.822,3.772A2.827,2.827,0,0,1,1.8,2.921L0,1.095,1.076,0l1.8,1.826a1.323,1.323,0,0,0,1.887,0L6.189.377a.522.522,0,0,1,.745,0l.706.718-1.8,1.831A2.822,2.822,0,0,1,3.822,3.772Z" transform="translate(7.64 3.772) rotate(180)" fill="#212121"/><path d="M3.822,92.286A2.827,2.827,0,0,1,1.8,91.435L0,89.609l1.076-1.095,1.8,1.826a1.323,1.323,0,0,0,1.887,0l1.425-1.449a.522.522,0,0,1,.745,0l.706.718-1.8,1.831A2.822,2.822,0,0,1,3.822,92.286Z" transform="translate(34.034 -80.265)" fill="#212121"/><path d="M3.822,3.772A2.827,2.827,0,0,1,1.8,2.921L0,1.095,1.076,0l1.8,1.826a1.323,1.323,0,0,0,1.887,0L6.189.377a.522.522,0,0,1,.745,0l.706.718-1.8,1.831A2.822,2.822,0,0,1,3.822,3.772Z" transform="translate(30.944 3.772) rotate(180)" fill="#212121"/><path d="M3.822,92.286A2.827,2.827,0,0,1,1.8,91.435L0,89.609l1.076-1.095,1.8,1.826a1.323,1.323,0,0,0,1.887,0l1.425-1.449a.522.522,0,0,1,.745,0l.706.718-1.8,1.831A2.822,2.822,0,0,1,3.822,92.286Z" transform="translate(57.338 -80.265)" fill="#212121"/><path d="M3.822,3.772A2.827,2.827,0,0,1,1.8,2.921L0,1.095,1.076,0l1.8,1.826a1.323,1.323,0,0,0,1.887,0L6.189.377a.522.522,0,0,1,.745,0l.706.718-1.8,1.831A2.822,2.822,0,0,1,3.822,3.772Z" transform="translate(54.248 3.772) rotate(180)" fill="#212121"/><path d="M3.822,92.286A2.827,2.827,0,0,1,1.8,91.435L0,89.609l1.076-1.095,1.8,1.826a1.323,1.323,0,0,0,1.887,0l1.425-1.449a.522.522,0,0,1,.745,0l.706.718-1.8,1.831A2.822,2.822,0,0,1,3.822,92.286Z" transform="translate(10.73 -61.194)" fill="#212121"/><path d="M3.822,3.772A2.827,2.827,0,0,1,1.8,2.921L0,1.095,1.076,0l1.8,1.826a1.323,1.323,0,0,0,1.887,0L6.189.377a.522.522,0,0,1,.745,0l.706.718-1.8,1.831A2.822,2.822,0,0,1,3.822,3.772Z" transform="translate(7.64 22.843) rotate(180)" fill="#212121"/><path d="M3.822,92.286A2.827,2.827,0,0,1,1.8,91.435L0,89.609l1.076-1.095,1.8,1.826a1.323,1.323,0,0,0,1.887,0l1.425-1.449a.522.522,0,0,1,.745,0l.706.718-1.8,1.831A2.822,2.822,0,0,1,3.822,92.286Z" transform="translate(34.034 -61.194)" fill="#212121"/><path d="M3.822,3.772A2.827,2.827,0,0,1,1.8,2.921L0,1.095,1.076,0l1.8,1.826a1.323,1.323,0,0,0,1.887,0L6.189.377a.522.522,0,0,1,.745,0l.706.718-1.8,1.831A2.822,2.822,0,0,1,3.822,3.772Z" transform="translate(30.944 22.843) rotate(180)" fill="#212121"/><path d="M3.822,92.286A2.827,2.827,0,0,1,1.8,91.435L0,89.609l1.076-1.095,1.8,1.826a1.323,1.323,0,0,0,1.887,0l1.425-1.449a.522.522,0,0,1,.745,0l.706.718-1.8,1.831A2.822,2.822,0,0,1,3.822,92.286Z" transform="translate(57.338 -61.194)" fill="#212121"/><path d="M3.822,3.772A2.827,2.827,0,0,1,1.8,2.921L0,1.095,1.076,0l1.8,1.826a1.323,1.323,0,0,0,1.887,0L6.189.377a.522.522,0,0,1,.745,0l.706.718-1.8,1.831A2.822,2.822,0,0,1,3.822,3.772Z" transform="translate(54.248 22.843) rotate(180)" fill="#212121"/><path d="M3.822,92.286A2.827,2.827,0,0,1,1.8,91.435L0,89.609l1.076-1.095,1.8,1.826a1.323,1.323,0,0,0,1.887,0l1.425-1.449a.522.522,0,0,1,.745,0l.706.718-1.8,1.831A2.822,2.822,0,0,1,3.822,92.286Z" transform="translate(10.731 -41.621)" fill="#212121"/><path d="M3.822,3.772A2.827,2.827,0,0,1,1.8,2.921L0,1.095,1.076,0l1.8,1.826a1.323,1.323,0,0,0,1.887,0L6.189.377a.522.522,0,0,1,.745,0l.706.718-1.8,1.831A2.822,2.822,0,0,1,3.822,3.772Z" transform="translate(7.64 42.416) rotate(180)" fill="#212121"/><path d="M3.822,92.286A2.827,2.827,0,0,1,1.8,91.435L0,89.609l1.076-1.095,1.8,1.826a1.323,1.323,0,0,0,1.887,0l1.425-1.449a.522.522,0,0,1,.745,0l.706.718-1.8,1.831A2.822,2.822,0,0,1,3.822,92.286Z" transform="translate(34.034 -41.621)" fill="#212121"/><path d="M3.822,3.772A2.827,2.827,0,0,1,1.8,2.921L0,1.095,1.076,0l1.8,1.826a1.323,1.323,0,0,0,1.887,0L6.189.377a.522.522,0,0,1,.745,0l.706.718-1.8,1.831A2.822,2.822,0,0,1,3.822,3.772Z" transform="translate(30.945 42.416) rotate(180)" fill="#212121"/><path d="M3.822,92.286A2.827,2.827,0,0,1,1.8,91.435L0,89.609l1.076-1.095,1.8,1.826a1.323,1.323,0,0,0,1.887,0l1.425-1.449a.522.522,0,0,1,.745,0l.706.718-1.8,1.831A2.822,2.822,0,0,1,3.822,92.286Z" transform="translate(57.338 -41.621)" fill="#212121"/><path d="M3.822,3.772A2.827,2.827,0,0,1,1.8,2.921L0,1.095,1.076,0l1.8,1.826a1.323,1.323,0,0,0,1.887,0L6.189.377a.522.522,0,0,1,.745,0l.706.718-1.8,1.831A2.822,2.822,0,0,1,3.822,3.772Z" transform="translate(54.248 42.416) rotate(180)" fill="#212121"/><path d="M3.822,92.286A2.827,2.827,0,0,1,1.8,91.435L0,89.609l1.076-1.095,1.8,1.826a1.323,1.323,0,0,0,1.887,0l1.425-1.449a.522.522,0,0,1,.745,0l.706.718-1.8,1.831A2.822,2.822,0,0,1,3.822,92.286Z" transform="translate(10.731 -22.551)" fill="#212121"/><path d="M3.822,3.772A2.827,2.827,0,0,1,1.8,2.921L0,1.095,1.076,0l1.8,1.826a1.323,1.323,0,0,0,1.887,0L6.189.377a.522.522,0,0,1,.745,0l.706.718-1.8,1.831A2.822,2.822,0,0,1,3.822,3.772Z" transform="translate(7.64 61.486) rotate(180)" fill="#212121"/><path d="M3.822,92.286A2.827,2.827,0,0,1,1.8,91.435L0,89.609l1.076-1.095,1.8,1.826a1.323,1.323,0,0,0,1.887,0l1.425-1.449a.522.522,0,0,1,.745,0l.706.718-1.8,1.831A2.822,2.822,0,0,1,3.822,92.286Z" transform="translate(34.034 -22.551)" fill="#212121"/><path d="M3.822,3.772A2.827,2.827,0,0,1,1.8,2.921L0,1.095,1.076,0l1.8,1.826a1.323,1.323,0,0,0,1.887,0L6.189.377a.522.522,0,0,1,.745,0l.706.718-1.8,1.831A2.822,2.822,0,0,1,3.822,3.772Z" transform="translate(30.945 61.486) rotate(180)" fill="#212121"/><path d="M3.822,92.286A2.827,2.827,0,0,1,1.8,91.435L0,89.609l1.076-1.095,1.8,1.826a1.323,1.323,0,0,0,1.887,0l1.425-1.449a.522.522,0,0,1,.745,0l.706.718-1.8,1.831A2.822,2.822,0,0,1,3.822,92.286Z" transform="translate(57.338 -22.551)" fill="#212121"/><path d="M3.822,3.772A2.827,2.827,0,0,1,1.8,2.921L0,1.095,1.076,0l1.8,1.826a1.323,1.323,0,0,0,1.887,0L6.189.377a.522.522,0,0,1,.745,0l.706.718-1.8,1.831A2.822,2.822,0,0,1,3.822,3.772Z" transform="translate(54.248 61.486) rotate(180)" fill="#212121"/><path d="M3.822,3.772A2.827,2.827,0,0,1,1.8,2.921L0,1.095,1.076,0l1.8,1.826a1.323,1.323,0,0,0,1.887,0L6.189.377a.522.522,0,0,1,.745,0l.706.718-1.8,1.831A2.822,2.822,0,0,1,3.822,3.772Z" transform="translate(78.171 3.772) rotate(180)" fill="#212121"/><path d="M3.822,3.772A2.827,2.827,0,0,1,1.8,2.921L0,1.095,1.076,0l1.8,1.826a1.323,1.323,0,0,0,1.887,0L6.189.377a.522.522,0,0,1,.745,0l.706.718-1.8,1.831A2.822,2.822,0,0,1,3.822,3.772Z" transform="translate(78.171 22.842) rotate(180)" fill="#212121"/><path d="M3.822,3.772A2.827,2.827,0,0,1,1.8,2.921L0,1.095,1.076,0l1.8,1.826a1.323,1.323,0,0,0,1.887,0L6.189.377a.522.522,0,0,1,.745,0l.706.718-1.8,1.831A2.822,2.822,0,0,1,3.822,3.772Z" transform="translate(78.171 42.416) rotate(180)" fill="#212121"/><path d="M3.822,3.772A2.827,2.827,0,0,1,1.8,2.921L0,1.095,1.076,0l1.8,1.826a1.323,1.323,0,0,0,1.887,0L6.189.377a.522.522,0,0,1,.745,0l.706.718-1.8,1.831A2.822,2.822,0,0,1,3.822,3.772Z" transform="translate(78.171 61.486) rotate(180)" fill="#212121"/></g><path d="M109.648,19.5A66.323,66.323,0,0,0,90.242,67.147l.433,60.133h.149l.426,58.776a31.019,31.019,0,0,1-31.269,31.3l-47.631-.4A12.25,12.25,0,0,0,0,229.313l.2,23.614,60.084.58a66.42,66.42,0,0,0,66.942-67.143l-.436-60.136h-.146l-.426-58.775a31.018,31.018,0,0,1,31.269-31.3l47.631.4A12.249,12.249,0,0,0,217.468,24.2l-.2-23.617L157.184,0,156.6,0A66.081,66.081,0,0,0,109.648,19.5Z" transform="translate(1067.456 768.194) rotate(-90)" fill="url(#c)"/></g></svg>